<?xml version="1.0" encoding="UTF-8" standalone="no"?>
<!DOCTYPE svg PUBLIC "-//W3C//DTD SVG 1.1//EN"
 "http://www.w3.org/Graphics/SVG/1.1/DTD/svg11.dtd">
<!-- Generated by graphviz version 2.38.0 (20140413.2041)
 -->
<!-- Title: g Pages: 1 -->
<svg width="285pt" height="174pt"
 viewBox="0.00 0.00 285.23 173.86" xmlns="http://www.w3.org/2000/svg" xmlns:xlink="http://www.w3.org/1999/xlink">
<g id="graph0" class="graph" transform="scale(1 1) rotate(0) translate(79.229 80.3196)">
<title>g</title>
<polygon fill="white" stroke="none" points="-79.229,93.544 -79.229,-80.3196 206.002,-80.3196 206.002,93.544 -79.229,93.544"/>
<!-- 明日  -->
<g id="node1" class="node"><title>明日 </title>
<ellipse fill="none" stroke="black" cx="-43.3819" cy="-53.9335" rx="31.6951" ry="18"/>
<text text-anchor="middle" x="-43.3819" y="-50.2335" font-family="Times,serif" font-size="14.00">明日 </text>
</g>
<!-- 行き 。 -->
<g id="node2" class="node"><title>行き 。</title>
<ellipse fill="none" stroke="black" cx="0.638682" cy="3.38951" rx="40.8928" ry="18"/>
<text text-anchor="middle" x="0.638682" y="7.08951" font-family="Times,serif" font-size="14.00">行き 。</text>
</g>
<!-- 明日 &#45;&gt;行き 。 -->
<g id="edge1" class="edge"><title>明日 &#45;&gt;行き 。</title>
<path fill="none" stroke="black" d="M-30.6493,-37.3533C-26.9166,-32.4927 -22.7482,-27.0646 -18.7019,-21.7956"/>
<polygon fill="black" stroke="black" points="-15.839,-23.814 -12.5242,-13.751 -21.3908,-19.5505 -15.839,-23.814"/>
</g>
<!-- 学校  -->
<g id="node3" class="node"><title>学校 </title>
<ellipse fill="none" stroke="black" cx="24.7432" cy="71.544" rx="31.6951" ry="18"/>
<text text-anchor="middle" x="24.7432" y="75.244" font-family="Times,serif" font-size="14.00">学校 </text>
</g>
<!-- 学校 &#45;&gt;行き 。 -->
<g id="edge2" class="edge"><title>学校 &#45;&gt;行き 。</title>
<path fill="none" stroke="black" d="M18.41,53.6372C15.9659,46.7267 13.1134,38.6612 10.4181,31.0406"/>
<polygon fill="black" stroke="black" points="7.04795,32.0081 7.01325,21.4133 13.6474,29.674 7.04795,32.0081"/>
</g>
<!-- 行き ます 。  -->
<g id="node4" class="node"><title>行き ます 。 </title>
<ellipse fill="none" stroke="black" cx="94.3952" cy="-58.3196" rx="64.189" ry="18"/>
<text text-anchor="middle" x="94.3952" y="-54.6196" font-family="Times,serif" font-size="14.00">行き ます 。 </text>
</g>
<!-- &lt;root&gt; -->
<g id="node5" class="node"><title>&lt;root&gt;</title>
<ellipse fill="none" stroke="black" cx="165.605" cy="-47.6804" rx="36.2938" ry="18"/>
<text text-anchor="middle" x="165.605" y="-43.9804" font-family="Times,serif" font-size="14.00">&lt;root&gt;</text>
</g>
<!-- 行き ます 。 &#45;&gt;&lt;root&gt; -->
<g id="edge3" class="edge"><title>行き ます 。 &#45;&gt;&lt;root&gt;</title>
<path fill="none" stroke="black" d="M151.194,-49.8334C151.261,-49.8236 151.327,-49.8137 151.392,-49.8039"/>
<polygon fill="black" stroke="black" points="142.218,-54.718 151.589,-49.7745 141.18,-47.7948 142.218,-54.718"/>
</g>
</g>
</svg>
